<svg width="64" height="64" viewBox="0 0 64 64" fill="#035AFB" xmlns="http://www.w3.org/2000/svg">
<path fill-rule="evenodd" clip-rule="evenodd" d="M49.5223 36.5601L55.2289 48.2401H55.2823C56.2156 50.1334 56.8556 51.4401 56.4023 52.7201C56.272 53.1813 55.9902 53.5853 55.6023 53.8668C54.4556 54.6934 52.5089 54.8001 50.1623 54.1601C49.2023 53.8934 48.0289 53.6001 47.8156 53.6534C47.4689 53.8934 47.0956 54.8268 46.7489 55.7068C45.4956 58.8268 44.1623 60.4001 42.5623 60.6401H41.9489C40.0449 60.3468 39.3996 58.6401 38.3489 55.8508L38.3223 55.7868L34.1089 44.6134L34.0396 44.6188C33.7463 44.6454 33.4743 44.6668 33.1756 44.6668C33.0174 44.665 32.8618 44.6561 32.7089 44.6401C32.556 44.6241 32.4005 44.6152 32.2423 44.6134L28.0289 55.7601C26.8556 58.8801 25.6023 60.3734 23.9756 60.6401H23.3623C21.4529 60.3734 20.7836 58.6828 19.6743 55.8828L19.6556 55.8401L19.5356 55.5441C19.1996 54.7228 18.8609 53.8961 18.6689 53.7041C18.2689 53.5708 17.1756 53.8641 16.1889 54.1308C13.8689 54.7708 11.8689 54.6641 10.7223 53.8374C10.4748 53.6782 10.2727 53.4578 10.1356 53.1974C9.32492 51.7841 9.98092 50.4188 10.9649 48.3708L11.0183 48.2641L16.7249 36.5574C14.0583 33.0908 12.4583 28.7441 12.4583 24.0241C12.4583 12.6374 21.7383 3.35742 33.1249 3.35742C44.5116 3.35742 53.7916 12.6374 53.7916 24.0241C53.7916 28.7441 52.1916 33.0641 49.5249 36.5574M23.8183 55.4641C23.9516 55.1708 24.1116 54.7974 24.2716 54.3708L24.2983 54.3441L28.1916 44.0241C25.0572 43.262 22.1499 41.7626 19.7116 39.6508L14.6716 49.9708L14.4316 50.4508C14.6716 50.4241 14.9116 50.3708 15.1783 50.2908C17.2049 49.7308 18.4316 49.4108 19.7649 49.8374C20.1916 49.9708 20.5649 50.1574 20.9383 50.3974C22.1063 51.1761 22.5916 52.3841 23.3303 54.2161L23.3916 54.3708C23.4787 54.6054 23.5685 54.8365 23.6609 55.0641L23.8183 55.4641ZM33.1516 7.35742C23.9516 7.35742 16.4849 14.8241 16.4849 24.0241C16.4849 33.2241 23.9516 40.6908 33.1516 40.6908C42.3516 40.6908 49.8183 33.2241 49.8183 24.0241C49.8183 14.8241 42.3516 7.35742 33.1516 7.35742ZM46.5649 49.8641C47.8983 49.4374 49.1249 49.7574 51.1516 50.3174V50.3441C51.4449 50.3974 51.6849 50.4508 51.8983 50.5041L51.7916 50.2774C51.7596 50.2045 51.724 50.129 51.6849 50.0508L46.6183 39.6774C44.2183 41.7308 41.3116 43.2508 38.1383 44.0508L42.0316 54.3708C42.1471 54.6428 42.2538 54.9103 42.3516 55.1734L42.4583 55.4641C42.6183 55.1441 42.8049 54.7441 42.9916 54.2641C43.7383 52.3708 44.1916 51.2241 45.3916 50.4241C45.7649 50.1841 46.1383 49.9974 46.5649 49.8641ZM37.7916 17.0374L41.9783 17.7308H42.0849C43.1783 17.9174 44.0849 18.6908 44.4316 19.7574C44.7783 20.8508 44.5116 22.0241 43.7383 22.8508L40.6716 26.0508L41.3383 30.5308C41.4983 31.7041 41.0183 32.8241 40.0849 33.4908C39.1783 34.1308 37.9783 34.2108 36.9916 33.6774L33.2316 31.6774L29.4716 33.6774C29.0449 33.9174 28.5649 34.0241 28.0849 34.0241C27.4983 34.0241 26.8849 33.8641 26.3783 33.4908C25.4183 32.8241 24.9649 31.6774 25.1249 30.5308L25.7916 26.0508L22.7249 22.8508C21.9249 22.0241 21.6583 20.8508 22.0316 19.7574C22.3783 18.6908 23.2849 17.9174 24.3783 17.7308L28.5649 17.0374L30.5116 13.0374C31.0183 11.9974 32.0583 11.3574 33.1783 11.3574C34.2983 11.3574 35.3383 11.9974 35.8449 13.0374L37.7916 17.0374ZM36.5649 26.1574C36.4316 25.2241 36.7249 24.2641 37.3649 23.5974L39.4983 21.3574L36.5916 20.8774C36.1223 20.7944 35.6795 20.6012 35.2994 20.3138C34.9192 20.0264 34.6127 19.6529 34.4049 19.2241L33.1516 16.6374L31.8983 19.2241C31.4716 20.1041 30.6449 20.7174 29.7116 20.8774L26.8049 21.3574L28.9383 23.5974C29.5783 24.2641 29.8716 25.2241 29.7383 26.1574L29.2849 29.1708L31.7649 27.8641C32.1916 27.6241 32.6716 27.5174 33.1516 27.5174C33.6316 27.5174 34.1116 27.6241 34.5383 27.8641L37.0183 29.1708L36.5649 26.1574Z"/>
</svg>
