<svg width="16" height="15" viewBox="0 0 16 15" fill="#FBC903" xmlns="http://www.w3.org/2000/svg">
<path d="M8.00125 12.3952L4.54292 14.4785C4.39014 14.5757 4.23042 14.6174 4.06375 14.6035C3.89708 14.5896 3.75125 14.5341 3.62625 14.4368C3.50125 14.3396 3.40403 14.2182 3.33458 14.0727C3.26514 13.9271 3.25125 13.7638 3.29292 13.5827L4.20958 9.64518L1.14708 6.99935C1.0082 6.87435 0.921528 6.73185 0.887084 6.57185C0.85264 6.41185 0.862917 6.25574 0.917917 6.10352C0.972917 5.95129 1.05625 5.82629 1.16792 5.72852C1.27958 5.63074 1.43236 5.56824 1.62625 5.54102L5.66792 5.18685L7.23042 1.47852C7.29986 1.31185 7.40764 1.18685 7.55375 1.10352C7.69986 1.02018 7.84903 0.978516 8.00125 0.978516C8.15347 0.978516 8.30264 1.02018 8.44875 1.10352C8.59486 1.18685 8.70264 1.31185 8.77208 1.47852L10.3346 5.18685L14.3762 5.54102C14.5707 5.56879 14.7235 5.63129 14.8346 5.72852C14.9457 5.82574 15.029 5.95074 15.0846 6.10352C15.1401 6.25629 15.1507 6.41268 15.1163 6.57268C15.0818 6.73268 14.9949 6.87491 14.8554 6.99935L11.7929 9.64518L12.7096 13.5827C12.7513 13.7632 12.7374 13.9266 12.6679 14.0727C12.5985 14.2188 12.5013 14.3402 12.3763 14.4368C12.2513 14.5335 12.1054 14.5891 11.9388 14.6035C11.7721 14.618 11.6124 14.5763 11.4596 14.4785L8.00125 12.3952Z"/>
</svg>
